<?xml version="1.0" standalone="no"?><!DOCTYPE svg PUBLIC "-//W3C//DTD SVG 1.1//EN" "http://www.w3.org/Graphics/SVG/1.1/DTD/svg11.dtd"><svg t="1709433871738" class="icon" viewBox="0 0 1024 1024" version="1.1" xmlns="http://www.w3.org/2000/svg" p-id="13726" xmlns:xlink="http://www.w3.org/1999/xlink" width="200" height="200"><path d="M849.55 515H153.74c-16.57 0-30-13.43-30-30s13.43-30 30-30h695.81c16.57 0 30 13.43 30 30s-13.43 30-30 30z" p-id="13727" fill="#7B70EA"></path><path d="M844.56 496.41l-0.19-0.19-235.76-235.76-0.01-0.01-0.01-0.01c-0.15-0.15-0.24-0.24-0.25-0.26-11.79-12.06-11.82-30.63-0.01-42.43 10.26-10.26 28.79-12.95 42.43 0.02l0.01-0.01 0.27 0.27 0.18 0.18c0.07 0.07 0.14 0.13 0.2 0.2L887 453.99l-42.44 42.42z" p-id="13728" fill="#7B70EA"></path><path d="M626.84 740.76c-7.68 0-15.36-2.93-21.21-8.79-5.86-5.86-8.79-13.54-8.79-21.21s2.93-15.36 8.79-21.21l236.24-236.24c11.72-11.72 30.71-11.72 42.43 0 5.86 5.86 8.79 13.54 8.79 21.21s-2.93 15.36-8.79 21.21L648.05 731.97c-5.85 5.86-13.53 8.79-21.21 8.79z" p-id="13729" fill="#7B70EA"></path></svg>