<?xml version="1.0" standalone="no"?><!DOCTYPE svg PUBLIC "-//W3C//DTD SVG 1.1//EN" "http://www.w3.org/Graphics/SVG/1.1/DTD/svg11.dtd"><svg t="1709388736262" class="icon" viewBox="0 0 1024 1024" version="1.1" xmlns="http://www.w3.org/2000/svg" p-id="7106" width="200" height="200" xmlns:xlink="http://www.w3.org/1999/xlink"><path d="M366.189 70.174l0 0.02C217.063 71.6 95.021 203.287 92.038 351.791l-0.812 0-1.633 600.408 601.153 1.628 0.043-0.077c148.199-2.6 274.787-124.356 277.74-272.067l0.222 0 1.656-609.865L366.189 70.174 366.189 70.174zM852.842 681.365c-2.651 88.833-70.601 154-159.453 156.754l-489.53-0.336 2.345-483.927 0 0c1.882-91.086 68.017-168.157 159.67-168.403l489.082 0.318-2.351 495.594L852.842 681.365 852.842 681.365zM852.842 681.365" fill="#7B70EA" p-id="7107"></path><path d="M493.335 664.164" fill="#7B70EA" p-id="7108"></path><path d="M687.275 362.285l-88.833 0 0-22.969c0-20.957-16.369-37.959-36.581-37.959l-88.234 0c-20.201 0-36.574 17.002-36.574 37.959l0 22.969-88.926 0c-27.905 0-50.538 23.492-50.538 52.47l0 230.18c0 28.979 22.633 52.479 50.538 52.479l339.062 0c27.91 0 50.547-23.5 50.547-52.479L737.736 426.973c0.054 1.004 0.082 2.008 0.082 3.021l0-15.239C737.818 385.777 715.188 362.285 687.275 362.285zM632.533 558.413c0 6.263-4.835 11.325-10.847 11.325l-65.673 0 0 67.766c0 6.231-4.885 11.271-10.896 11.271l-54.726 0c-6.011 0-10.904-5.04-10.904-11.271l0-67.766-65.681 0c-5.996 0-10.848-5.063-10.848-11.325l0-56.797c0-6.253 4.86-11.322 10.848-11.322l65.681 0 0-68.62c0-6.212 4.894-11.25 10.904-11.25l54.726 0c6.011 0 10.896 5.028 10.896 11.25l0 68.62 65.673 0c6.012 0 10.847 5.069 10.847 11.322L632.533 558.413z" fill="#7B70EA" p-id="7109"></path><path d="M576.435 342.823c0-7.056-6.537-12.803-14.573-12.803l-88.234 0c-8.034 0-14.562 5.747-14.562 12.803l0 19.462 117.369 0L576.435 342.823 576.435 342.823z" fill="#7B70EA" p-id="7110"></path></svg>