<?xml version="1.0" standalone="no"?><!DOCTYPE svg PUBLIC "-//W3C//DTD SVG 1.1//EN" "http://www.w3.org/Graphics/SVG/1.1/DTD/svg11.dtd"><svg t="1709432100301" class="icon" viewBox="0 0 1024 1024" version="1.1" xmlns="http://www.w3.org/2000/svg" p-id="11089" xmlns:xlink="http://www.w3.org/1999/xlink" width="200" height="200"><path d="M827.12 942.008H695.154a115.671 115.671 0 0 1-115.656-115.686V694.318a115.671 115.671 0 0 1 115.656-115.712H827.12a115.671 115.671 0 0 1 115.655 115.712v132.004a115.671 115.671 0 0 1-115.655 115.686z" fill="#F4CA1C" p-id="11090"></path><path d="M813.097 302.592H711.276v-71.235A149.622 149.622 0 0 0 561.812 81.92H216.028A149.622 149.622 0 0 0 66.56 231.357v345.728a149.617 149.617 0 0 0 149.468 149.443h101.816v71.245A149.622 149.622 0 0 0 467.308 947.2h345.789A149.622 149.622 0 0 0 962.56 797.763V452.035a149.622 149.622 0 0 0-149.463-149.443z m81.546 495.16a81.633 81.633 0 0 1-81.546 81.536h-345.79a81.638 81.638 0 0 1-81.55-81.536v-71.224h176.055a149.617 149.617 0 0 0 149.464-149.432V478.28a33.956 33.956 0 0 0-67.912 0v98.816a81.633 81.633 0 0 1-81.552 81.53H216.028a81.633 81.633 0 0 1-81.551-81.53V231.357a81.633 81.633 0 0 1 81.551-81.536h345.784a81.633 81.633 0 0 1 81.552 81.536v71.235H467.308a149.622 149.622 0 0 0-149.464 149.443v97.53a33.956 33.956 0 0 0 67.912 0v-97.53a81.633 81.633 0 0 1 81.552-81.531h345.789a81.633 81.633 0 0 1 81.546 81.536v345.728z" fill="#595BB3" p-id="11091"></path></svg>