<?xml version="1.0" standalone="no"?><!DOCTYPE svg PUBLIC "-//W3C//DTD SVG 1.1//EN" "http://www.w3.org/Graphics/SVG/1.1/DTD/svg11.dtd"><svg t="1709381251170" class="icon" viewBox="0 0 1024 1024" version="1.1" xmlns="http://www.w3.org/2000/svg" p-id="5173" xmlns:xlink="http://www.w3.org/1999/xlink" width="200" height="200"><path d="M900.0976384 837.8744832H165.8421248V652.57472c23.2062976-54.05300053 58.20798293-103.34808747 108.49047893-131.63342507 118.93582507-72.3943424 180.9874944 113.76503467 279.2390656 139.6211712 113.76503467 31.02583467 196.50095787-51.7144576 232.6986752-144.79414613 25.85613653-72.39543467 25.85613653-279.2357888 134.44928854-284.40876373 41.3696 0 41.3696-62.05385387 0-56.8819712-118.93364053 10.34048853-144.79086933 129.27740587-165.4751232 222.3570944-10.34048853 62.05494613-20.68534613 134.44928853-67.223552 180.98858666-56.8819712 62.05385387-144.78977707 25.85613653-191.33125974-25.853952-67.223552-87.91217493-175.81561173-144.79414613-279.24015786-62.05494613-20.09879893 17.22722987-37.00053333 36.05353813-51.60741547 55.5843584v-406.43242667c0-24.27562667-19.67936853-43.95390293-43.95390293-43.95390293S77.93322667 114.79176533 77.93322667 139.06629973v742.7620864c0 24.27562667 19.67936853 43.95390293 43.95390293 43.95390294 0.3244032 0 0.6455296-0.01747627 0.96884053-0.02402987 0.3375104 0.0065536 0.67283627 0.02402987 1.0125312 0.02402987h776.22913707c25.3689856 0 45.93527467-19.67936853 45.93527467-43.95390294-0.00109227-24.2745344-20.56628907-43.95390293-45.93527467-43.95390293z" fill="#006569" p-id="5174"></path></svg>